<?xml version="1.0" encoding="UTF-8"?>
<svg version="1.1" xmlns="http://www.w3.org/2000/svg" width="250" height="100">
<path d="M0 0 C27.41214291 -0.04010881 27.41214291 -0.04010881 39.05273438 -0.04882812 C47.01099333 -0.05481734 54.96924028 -0.06191972 62.92749023 -0.07543945 C69.34002877 -0.08626571 75.75255504 -0.09227628 82.16510201 -0.09487724 C84.61764278 -0.09673197 87.07018285 -0.10035347 89.52271843 -0.10573006 C92.94476677 -0.11293702 96.36676371 -0.11399109 99.78881836 -0.11352539 C100.81380432 -0.11712067 101.83879028 -0.12071594 102.89483643 -0.12442017 C103.82176804 -0.1230455 104.74869965 -0.12167084 105.70372009 -0.12025452 C106.51397613 -0.12117631 107.32423216 -0.1220981 108.1590414 -0.12304783 C110 0 110 0 111 1 C111.09948193 3.11137901 111.12799638 5.22612286 111.12939453 7.33984375 C111.13202301 8.33251755 111.13202301 8.33251755 111.13470459 9.34524536 C111.13912217 11.5426899 111.13618547 13.74005458 111.1328125 15.9375 C111.13348557 17.45825211 111.13445561 18.97900412 111.13571167 20.49975586 C111.13718851 23.69092836 111.13503452 26.88207292 111.13037109 30.07324219 C111.1246738 34.1726453 111.12795288 38.27198296 111.13394356 42.37138367 C111.13754954 45.51282244 111.13641042 48.65424558 111.13381577 51.79568481 C111.1331466 53.30762744 111.13397457 54.81957146 111.13629532 56.33151245 C111.13882245 58.44109887 111.13498044 60.55057787 111.12939453 62.66015625 C111.12859894 63.86293213 111.12780334 65.06570801 111.12698364 66.30493164 C111 69 111 69 110 70 C108.57053529 70.09554399 107.13637335 70.12188438 105.70372009 70.12025452 C104.77678848 70.12162918 103.84985687 70.12300385 102.89483643 70.12442017 C101.86985046 70.12082489 100.8448645 70.11722961 99.78881836 70.11352539 C98.17926018 70.11374443 98.17926018 70.11374443 96.53718567 70.1139679 C92.97138484 70.11326824 89.40563551 70.10547338 85.83984375 70.09765625 C83.37504607 70.09579226 80.91024801 70.09436827 78.44544983 70.09336853 C71.94346095 70.08954187 65.44149425 70.07971032 58.93951416 70.06866455 C51.14605067 70.05602947 43.35257577 70.0520489 35.55910492 70.04621124 C23.7060545 70.03649865 11.85305278 70.01734311 0 70 C0 46.9 0 23.8 0 0 Z M4 4 C4 24.46 4 44.92 4 66 C37.66 66 71.32 66 106 66 C106 45.54 106 25.08 106 4 C72.34 4 38.68 4 4 4 Z " fill="#3A86FF" transform="translate(9,15)"/>
<path d="M0 0 C3.96 0 7.92 0 12 0 C14.82080942 6.95128036 17.46536753 13.93923812 20 21 C22.31 14.07 24.62 7.14 27 0 C42.18 0 57.36 0 73 0 C73 1.98 73 3.96 73 6 C69.04 6 65.08 6 61 6 C61 15.24 61 24.48 61 34 C57.37 34 53.74 34 50 34 C50 24.76 50 15.52 50 6 C46.37 6 42.74 6 39 6 C38.505 5.01 38.505 5.01 38 4 C34.04 13.9 30.08 23.8 26 34 C22.04 34 18.08 34 14 34 C10.45463561 26.36140852 7.21616727 18.66889313 4.1875 10.8125 C3.78080078 9.76513672 3.37410156 8.71777344 2.95507812 7.63867188 C1.96724053 5.09353737 0.98321164 2.54692513 0 0 Z " fill="#FFFFFF" transform="translate(28,34)"/>
<path d="M0 0 C2.97 0 5.94 0 9 0 C10.32 4.95 11.64 9.9 13 15 C13.474375 12.710625 13.94875 10.42125 14.4375 8.0625 C15.875 1.125 15.875 1.125 17 0 C19.64 0 22.28 0 25 0 C26.32 5.28 27.64 10.56 29 16 C29.99 10.72 30.98 5.44 32 0 C35.3 0 38.6 0 42 0 C41.02618934 4.68240943 40.04750025 9.36376173 39.06420898 14.04418945 C38.73017109 15.63765588 38.39748502 17.2314063 38.06616211 18.82543945 C37.59060307 21.11224579 37.11024426 23.39799778 36.62890625 25.68359375 C36.48095108 26.40026718 36.33299591 27.11694061 36.18055725 27.85533142 C35.11387171 32.88612829 35.11387171 32.88612829 34 34 C32.48071962 34.07179964 30.95832518 34.08392007 29.4375 34.0625 C28.61121094 34.05347656 27.78492188 34.04445312 26.93359375 34.03515625 C26.29550781 34.02355469 25.65742188 34.01195312 25 34 C23.38262517 29.37892907 22.14751403 24.7539867 21 20 C19.68 24.62 18.36 29.24 17 34 C13.7 34 10.4 34 7 34 C6.00043097 29.47991237 5.00358471 24.95923627 4.00927734 20.43798828 C3.67051103 18.89941107 3.33099606 17.36099851 2.99072266 15.82275391 C2.50226941 13.61403384 2.01649543 11.40473922 1.53125 9.1953125 C1.37813354 8.50567413 1.22501709 7.81603577 1.06726074 7.10549927 C0 2.22774341 0 2.22774341 0 0 Z " fill="#FFFFFF" transform="translate(137,37)"/>
<path d="M0 0 C2.97 0 5.94 0 9 0 C9.33 3.3 9.66 6.6 10 10 C11.8253125 9.87625 11.8253125 9.87625 13.6875 9.75 C17.03116277 9.74407152 17.9543162 9.97181212 20.9375 11.8125 C24.19446019 15.26685171 24.18159146 18.30302945 24.25 22.875 C24.27578125 23.90367188 24.3015625 24.93234375 24.328125 25.9921875 C23.95207858 29.4392797 23.06101514 31.23592829 21 34 C18 36 18 36 0 36 C0 24.12 0 12.24 0 0 Z M11 16 C10.01 16.495 10.01 16.495 9 17 C9 20.96 9 24.92 9 29 C10.32 29.33 11.64 29.66 13 30 C15.24324836 28.18806994 15.24324836 28.18806994 15.1953125 25.6171875 C15.17210937 24.71226563 15.14890625 23.80734375 15.125 22.875 C15.09792969 21.50988281 15.09792969 21.50988281 15.0703125 20.1171875 C15.04710937 19.41851562 15.02390625 18.71984375 15 18 C13.11683841 16.89163577 13.11683841 16.89163577 11 16 Z " fill="#FFFFFF" transform="translate(208,35)"/>
<path d="M0 0 C3.52722121 1.91057815 4.65561829 3.24564006 6.3125 6.875 C7 10 7 10 7 16 C2.05 16.33 -2.9 16.66 -8 17 C-7.34 17.66 -6.68 18.32 -6 19 C-3.02934491 18.65772428 -3.02934491 18.65772428 0 18 C3 18 3 18 4.6875 19.375 C6 21 6 21 6 23 C2.01194978 26.5754933 -2.2381297 26.49974633 -7.3359375 26.35546875 C-11.08369069 25.85540198 -13.24202151 24.5458263 -16 22 C-18.73409924 17.55354103 -18.65589929 13.07122135 -18 8 C-13.99116296 -0.01767408 -8.43204541 -1.093296 0 0 Z M-6 6 C-7.54166642 7.37485532 -7.54166642 7.37485532 -9 9 C-9 9.66 -9 10.32 -9 11 C-6.69 11 -4.38 11 -2 11 C-2.26676204 9.01508358 -2.26676204 9.01508358 -3 7 C-3.99 6.67 -4.98 6.34 -6 6 Z " fill="#FFFFFF" transform="translate(198,45)"/>
<path d="M0 0 C3.0625 0.1875 3.0625 0.1875 5.0625 2.1875 C4.50694444 6.74305556 4.50694444 6.74305556 3.0625 8.1875 C0.125 8.375 0.125 8.375 -2.9375 8.1875 C-3.5975 7.5275 -4.2575 6.8675 -4.9375 6.1875 C-4.21574268 0.26908996 -4.21574268 0.26908996 0 0 Z " fill="#FFFFFF" transform="translate(129.9375,61.8125)"/>
</svg>
